<svg width="70" height="70" viewBox="0 0 70 70" fill="none" xmlns="http://www.w3.org/2000/svg">
<g clip-path="url(#clip0_131_6177)">
<path d="M0 30L0 40H20V30H0Z" fill="black"/>
<path d="M50 30V40H70V30H50Z" fill="black"/>
<path d="M40 0H30V20H40V0Z" fill="black"/>
<path d="M40 50H30V70H40V50Z" fill="black"/>
<path d="M63.2898 13.7819L56.2188 6.71088L42.0766 20.853L49.1477 27.9241L63.2898 13.7819Z" fill="black"/>
<path d="M27.9234 49.1419L20.8523 42.0709L6.71016 56.213L13.7812 63.2841L27.9234 49.1419Z" fill="black"/>
<path d="M56.2148 63.2866L63.2859 56.2155L49.1438 42.0734L42.0727 49.1444L56.2148 63.2866Z" fill="black"/>
<path d="M20.8613 27.9266L27.9324 20.8555L13.7902 6.71339L6.71917 13.7845L20.8613 27.9266Z" fill="black"/>
</g>
<defs>
<clipPath id="clip0_131_6177">
<rect width="70" height="70" fill="white"/>
</clipPath>
</defs>
</svg>
