<?xml version="1.0" encoding="UTF-8"?>
<svg id="Layer_2" data-name="Layer 2" xmlns="http://www.w3.org/2000/svg" viewBox="0 0 104.53 110">
  <g id="Layer_1-2" data-name="Layer 1">
    <g>
      <rect x="46.44" width="10" height="50"/>
      <rect x="46.44" y="60" width="10" height="50"/>
      <rect x="36.44" y="50" width="10" height="10" transform="translate(96.44 13.56) rotate(90)"/>
      <rect x="56.44" y="50" width="10" height="10" transform="translate(116.44 -6.44) rotate(90)"/>
      <rect x="10" width="10" height="20"/>
      <rect x="10" y="30" width="10" height="80"/>
      <rect y="20" width="10" height="10" transform="translate(30 20) rotate(90)"/>
      <rect x="20" y="20" width="10" height="10" transform="translate(50) rotate(90)"/>
      <rect x="84.53" y="90" width="10" height="20" transform="translate(179.06 200) rotate(180)"/>
      <rect x="84.53" width="10" height="80" transform="translate(179.06 80) rotate(180)"/>
      <rect x="94.53" y="80" width="10" height="10" transform="translate(14.53 184.53) rotate(-90)"/>
      <rect x="74.53" y="80" width="10" height="10" transform="translate(-5.47 164.53) rotate(-90)"/>
    </g>
  </g>
</svg>